# xmcd
#
# Track frame offsets:
#	150
#	17472
#	34876
#	50574
#	70901
#	95885
#	113761
#	130292
#	147343
#	162860
#
# Disc length: 2454 seconds
#
# Revision: 1
# Processed by: cddbd v1.5.1PL0 Copyright (c) Steve Scherf et al.
# Submitted via: audiograbber 1.83.01
#
DISCID=8b09940a
DTITLE=Twenty 2 Nine - It's Never Too Late
DYEAR=1900
DGENRE=
TTITLE0=Deliberating
TTITLE1=Butchershop Blues
TTITLE2=Outside
TTITLE3=Don't You See
TTITLE4=Hold On
TTITLE5=Two Steps
TTITLE6=Without You
TTITLE7=Scorpion King
TTITLE8=Excited
TTITLE9=Utila
EXTD=
EXTT0=
EXTT1=
EXTT2=
EXTT3=
EXTT4=
EXTT5=
EXTT6=
EXTT7=
EXTT8=
EXTT9=
PLAYORDER=
